PathFileType	4	(X/Y/Z)	/Users/visionmauri/Downloads/Videos/OAW02-top_Sports2D/OAW02-top_Sports2D_px_person00.trc
DataRate	CameraRate	NumFrames	NumMarkers	Units	OrigDataRate	OrigDataStartFrame	OrigNumFrames
30.0	30.0	6	22	m	30.0	269	2158
Frame#	Time	Hip			RHip			RKnee			RAnkle			RBigToe			RSmallToe			RHeel			LHip			LKnee			LAnkle			LBigToe			LSmallToe			LHeel			Neck			Head			Nose			RShoulder			RElbow			RWrist			LShoulder			LElbow			LWrist			
		X1	Y1	Z1	X2	Y2	Z2	X3	Y3	Z3	X4	Y4	Z4	X5	Y5	Z5	X6	Y6	Z6	X7	Y7	Z7	X8	Y8	Z8	X9	Y9	Z9	X10	Y10	Z10	X11	Y11	Z11	X12	Y12	Z12	X13	Y13	Z13	X14	Y14	Z14	X15	Y15	Z15	X16	Y16	Z16	X17	Y17	Z17	X18	Y18	Z18	X19	Y19	Z19	X20	Y20	Z20	X21	Y21	Z21	X22	Y22	Z22
269	8.970823674857055	654.0984261250408	841.5612184060593	0.0	638.7338573595214	842.8392591302403	0.0	643.2607605290748	891.4395327165113	0.0	644.8555385345043	946.0814702147719	0.0	647.0960810029219	966.3473669398328	0.0	637.7751582752865	965.512045683153	0.0	646.0121310168344	955.7162937919641	0.0	667.902473499794	844.9651263161176	0.0	665.238397419218	892.1258163625989	0.0	658.9156823431387	924.9028224028077	0.0	657.2535088602164	946.1542063972918	0.0	664.4675133661362	944.290529676473	0.0	656.5940382780751	929.0294099582587	0.0	660.762518458249	758.7509976617602	0.0	662.1973728265335	722.2636126418964	0.0	660.0613019321075	756.8012178254286	0.0	632.8404107717878	765.8797476520898	0.0	617.5306634851887	803.1524998843801	0.0	609.3805356592342	836.6461889343645	0.0	688.6040674986432	766.9214458716207	0.0	696.7448378525868	804.9820461678289	0.0	700.8227390892905	838.5595085649219	0.0
270	9.004172461752434	654.0802534085349	841.9973936115292	0.0	638.9702930153101	843.377581339952	0.0	642.6654949797847	892.6843552394023	0.0	645.1947053191419	947.1771594894058	0.0	646.9505813377425	968.0552577460836	0.0	637.5961451502657	966.5971099550496	0.0	646.5644845056103	956.520530499257	0.0	668.0146048703767	845.877306501009	0.0	665.7332305588099	893.2003796626299	0.0	660.3565739582049	924.8231751929236	0.0	657.0744088753453	947.2286927874841	0.0	664.5470373600937	945.007331620131	0.0	658.0026643036472	927.9646626846521	0.0	660.2700322187133	758.169656487153	0.0	661.4586608615708	722.2240461629342	0.0	659.5994624206145	757.1831809324	0.0	632.0243436632346	765.9775436074646	0.0	616.7339687044598	803.6996813024882	0.0	609.058794841637	837.3342562119084	0.0	688.3429171118703	767.1191704639679	0.0	696.3672084661296	805.148238939865	0.0	700.196032558352	839.4065280885569	0.0
271	9.037521248647813	653.8103425979424	841.9050875177659	0.0	638.5658863814589	843.2352838908276	0.0	641.86731162081	892.6218128142259	0.0	645.5765111315877	947.2599361905056	0.0	647.4115540460958	968.3499245755802	0.0	638.1655748674001	966.3551844750767	0.0	646.7745323015716	956.8542529149961	0.0	668.035707838744	846.1245303033444	0.0	665.8647476337753	893.3698458248756	0.0	661.9438913345729	924.959476546746	0.0	657.2182181016452	947.6481867819175	0.0	664.9358240351987	945.3177653580041	0.0	660.195991070123	927.0595400678787	0.0	659.7210779015576	757.8058934144816	0.0	661.3656069422414	721.6145099435302	0.0	659.5215511225531	757.4143478389853	0.0	631.0953197189128	765.558834981126	0.0	616.096954600834	803.8001154971317	0.0	608.448270826099	837.9869058901429	0.0	688.0661327754927	766.3805754834696	0.0	695.6343885698318	805.247232247705	0.0	699.3163409936582	839.6606618960045	0.0
272	9.070870035543193	653.4656092353666	841.6359901607133	0.0	637.8249660779315	843.0489965325315	0.0	641.1609716980607	892.1595165460593	0.0	645.9387864272513	947.0043270459217	0.0	648.2440587841377	968.1156161242138	0.0	638.9692699976097	965.9374817022573	0.0	647.0822709724963	956.5599296710452	0.0	667.9246450883722	845.7818392056873	0.0	665.902798735845	893.1181201530812	0.0	663.3316633094871	924.9263747741268	0.0	657.9055388357481	947.6191103435393	0.0	665.9051679818007	945.5919398752542	0.0	662.0794971132284	926.2510692408769	0.0	659.1222768824945	757.7648241274508	0.0	661.5698935397189	720.821525572222	0.0	659.7231127566205	757.6129868197831	0.0	630.1547286526697	764.7793145741532	0.0	615.5513920634838	803.4918946808413	0.0	607.7789765615771	838.2589780779314	0.0	687.8833558018827	765.2358736941667	0.0	694.664870356747	805.4215970358348	0.0	698.191229034941	839.6143382421359	0.0
273	9.104218822438572	653.1812562277029	841.7504158342335	0.0	637.3611474293364	843.4813517300912	0.0	640.6116598327866	892.6935520244159	0.0	646.0988317012815	946.8629994858943	0.0	648.879191588112	967.984465333682	0.0	639.3932753718553	966.0774720891666	0.0	647.5229347314083	955.8707759412612	0.0	667.7126461117412	845.4458683213843	0.0	665.9421017644253	893.4568821757662	0.0	664.1779069189153	925.3647332610389	0.0	659.0456449630259	948.5846363934676	0.0	667.3156207815041	946.9127337947119	0.0	662.6729372841787	926.686216446608	0.0	658.633927659045	757.8175979725121	0.0	661.717585228965	720.1381338751655	0.0	660.044935588418	757.4349927477891	0.0	629.3540551594065	764.060838647952	0.0	615.0753422288037	803.0545348320243	0.0	607.3849132643569	838.197791690511	0.0	687.8366505088235	764.6326843930873	0.0	693.592242799482	805.7119673655267	0.0	696.8895715214337	839.9953446062577	0.0
274	9.137567609333953	652.8333688548673	842.2151275457239	0.0	637.2397177485582	844.1312705506531	0.0	640.2065048677007	894.0477348921339	0.0	646.097346420835	947.0858250364099	0.0	649.0389567176705	968.1404567325668	0.0	639.4909486630845	966.5857731681439	0.0	647.9939894400283	955.4882693016076	0.0	667.4422166236518	845.4511662806617	0.0	665.9241083055756	894.4479460882321	0.0	664.5954776441314	926.9520130182027	0.0	660.9115327887164	951.392607625239	0.0	669.3963945592216	949.5707033714191	0.0	662.3911493428747	929.1333150362287	0.0	658.4031651841632	758.066070685581	0.0	661.8327997079768	719.7019270853161	0.0	660.4813409741564	757.1606164307475	0.0	628.8602408079854	763.7398062250287	0.0	614.6744808465786	802.8549157544019	0.0	607.3056928313347	838.2060155732198	0.0	687.8927994841539	764.6450244484876	0.0	692.5605921290737	806.1659219047907	0.0	695.5535874892166	841.0647355132203	0.0
